<svg width="22" height="28" viewBox="0 0 22 28" fill="none" xmlns="http://www.w3.org/2000/svg">
<path d="M8.14286 1V6.77778C8.14286 7.57552 7.50326 8.22222 6.71429 8.22222H1M12.4286 19.0556L16 22.6667M21 2.44444V25.5556C21 26.3533 20.3604 27 19.5714 27H2.42857C1.6396 27 1 26.3533 1 25.5556V8.0983C1 7.71522 1.15051 7.34781 1.41841 7.07694L7.01016 1.42306C7.27806 1.15219 7.64143 1 8.0203 1H19.5714C20.3604 1 21 1.64671 21 2.44444ZM13.8571 16.1667C13.8571 18.161 12.2581 19.7778 10.2857 19.7778C8.31329 19.7778 6.71429 18.161 6.71429 16.1667C6.71429 14.1723 8.31329 12.5556 10.2857 12.5556C12.2581 12.5556 13.8571 14.1723 13.8571 16.1667Z" stroke="var(--mat-sys-on-secondary, white)" stroke-width="2" stroke-linecap="round" stroke-linejoin="round"/>
</svg>
