<svg width="294" height="256" viewBox="0 0 294 256" fill="none" xmlns="http://www.w3.org/2000/svg">
<g clip-path="url(#clip0_533_5599)">
<path d="M205.842 251.662H88.1523L96.7742 228.535L104.964 206.565H189.031L197.22 228.535L205.842 251.662Z" fill="var(--mat-sys-outline-variant,#C1C7CE)"/>
<path d="M197.22 228.535H96.7744L104.964 206.565L153.941 192.548L189.031 206.565L197.22 228.535ZM240.06 256H53.9371C51.4519 256 49.4375 254.059 49.4375 251.664C49.4375 249.269 51.4519 247.326 53.9371 247.326H240.06C241.241 247.344 242.367 247.809 243.196 248.62C244.025 249.432 244.489 250.525 244.489 251.663C244.489 252.801 244.025 253.894 243.196 254.705C242.367 255.517 241.242 255.982 240.06 256Z" fill="var(--mat-sys-outline,#72787E)"/>
<path d="M294 21.6408V184.923C294 196.874 283.944 206.566 271.542 206.566H22.4537C10.0511 206.566 0 196.873 0 184.923V21.6408C0 9.68994 10.0511 0 22.4531 0H271.542C283.944 0 294 9.68994 294 21.6408Z" fill="var(--mat-sys-secondary,#445E91)"/>
<path d="M294 21.6408V184.923C294 196.874 283.944 206.566 271.542 206.566H114.894L170.027 0H271.542C283.944 0 294 9.68994 294 21.6408Z" fill="var(--mat-sys-secondary,#445E91)"/>
<path d="M294 170.469V184.923C294 196.874 283.944 206.566 271.542 206.566H22.4537C10.0511 206.566 0 196.874 0 184.923V170.47L294 170.469Z" fill="var(--mat-sys-outline-variant,#C1C7CE)"/>
<path d="M104.36 110.137H101.015V94.2761C101.015 90.8676 97.9357 88.4877 93.5257 88.4877C89.1157 88.4877 86.0362 90.867 86.0362 94.2756V110.137H73.3833L96.3543 66.0695C96.8946 65.1675 97.137 64.3054 97.137 63.2851C97.137 59.4267 92.8418 57.0557 89.7617 57.0557C86.8952 57.0557 84.4462 58.5215 83.0215 61.1194L54.9118 114.523C54.2991 115.475 53.9873 116.612 53.9873 117.903C53.9873 121.571 56.5512 124.132 60.2233 124.132H86.0362V136.697C86.0362 140.114 89.1852 142.593 93.5257 142.593C97.8662 142.593 101.015 140.114 101.015 136.697V124.132H104.36C107.316 124.132 110.481 121.32 110.481 117.133C110.481 113.078 107.906 110.137 104.36 110.137ZM147.056 57.0557C129.755 57.0557 119.834 66.7368 119.834 83.6156V116.695C119.834 133.573 129.755 143.255 147.056 143.255C164.426 143.255 174.389 133.573 174.389 116.695V83.6156C174.389 66.7368 164.426 57.0557 147.056 57.0557ZM159.41 83.6156V116.695C159.41 125.444 155.368 129.698 147.056 129.698C138.82 129.698 134.815 125.444 134.815 116.695V83.6156C134.815 74.8663 138.82 70.6123 147.056 70.6123C155.368 70.6123 159.41 74.8663 159.41 83.6156ZM233.887 110.137H230.542V94.2761C230.542 90.8676 227.462 88.4877 223.052 88.4877C218.642 88.4877 215.563 90.867 215.563 94.2756V110.137H202.91L225.881 66.0695C226.421 65.1675 226.664 64.3054 226.664 63.2851C226.664 59.4267 222.368 57.0557 219.289 57.0557C216.422 57.0557 213.973 58.5215 212.548 61.1194L184.439 114.523C183.827 115.475 183.517 116.612 183.517 117.903C183.517 121.571 186.081 124.132 189.753 124.132H215.563V136.697C215.563 140.114 218.713 142.593 223.053 142.593C227.393 142.593 230.542 140.114 230.542 136.697V124.132H233.887C236.843 124.132 240.008 121.32 240.008 117.133C240.008 113.078 237.433 110.137 233.887 110.137Z" fill="var(--mat-sys-on-secondary, white)"/>
</g>
<defs>
<clipPath id="clip0_533_5599">
<rect width="294" height="256" fill="var(--mat-sys-on-secondary,white)"/>
</clipPath>
</defs>
</svg>
