<svg width="26" height="26" viewBox="0 0 26 26" fill="none" xmlns="http://www.w3.org/2000/svg">
<path d="M19.6666 22H23.5C24.3284 22 25 21.3284 25 20.5V13C25 12.1716 24.3284 11.5 23.5 11.5H2.5C1.67158 11.5 1 12.1716 1 13V20.5C1 21.3284 1.67156 22 2.5 22H6.33334M20.5 11.5V2.5C20.5 1.67158 19.8284 1 19 1H7C6.17158 1 5.5 1.67158 5.5 2.5V11.5H20.5ZM5.5 17.5H20.5V23.5C20.5 24.3284 19.8284 25 19 25H7C6.17158 25 5.5 24.3284 5.5 23.5V17.5Z" stroke="white" stroke-width="2" stroke-linejoin="round"/>
</svg>
