<svg width="26" height="26" viewBox="0 0 26 26" fill="none" xmlns="http://www.w3.org/2000/svg">
<path d="M25 14.3333V11.6667C25 11.3131 24.8595 10.9739 24.6095 10.7239C24.3595 10.4739 24.0203 10.3333 23.6667 10.3333H22.6573L21.7147 8.05733L22.428 7.34267C22.678 7.09263 22.8184 6.75355 22.8184 6.4C22.8184 6.04645 22.678 5.70737 22.428 5.45733L20.5427 3.572C20.2927 3.32204 19.9536 3.18161 19.6 3.18161C19.2464 3.18161 18.9073 3.32204 18.6573 3.572L17.9427 4.28533L15.6667 3.34267V2.33333C15.6667 1.97971 15.5261 1.64057 15.2761 1.39052C15.0261 1.14048 14.6869 1 14.3333 1H11.6667C11.3131 1 10.9739 1.14048 10.7239 1.39052C10.4739 1.64057 10.3333 1.97971 10.3333 2.33333V3.34267L8.05733 4.28533L7.34267 3.572C7.09263 3.32204 6.75355 3.18161 6.4 3.18161C6.04645 3.18161 5.70737 3.32204 5.45733 3.572L3.572 5.45733C3.32204 5.70737 3.18161 6.04645 3.18161 6.4C3.18161 6.75355 3.32204 7.09263 3.572 7.34267L4.28667 8.05733L3.34267 10.3333H2.33333C1.97971 10.3333 1.64057 10.4739 1.39052 10.7239C1.14048 10.9739 1 11.3131 1 11.6667V14.3333C1 14.6869 1.14048 15.0261 1.39052 15.2761C1.64057 15.5261 1.97971 15.6667 2.33333 15.6667H3.34267L4.28533 17.9427L3.572 18.6573C3.32204 18.9073 3.18161 19.2464 3.18161 19.6C3.18161 19.9536 3.32204 20.2927 3.572 20.5427L5.45733 22.428C5.70737 22.678 6.04645 22.8184 6.4 22.8184C6.75355 22.8184 7.09263 22.678 7.34267 22.428L8.05733 21.7147L10.3333 22.6573V23.6667C10.3333 24.0203 10.4739 24.3595 10.7239 24.6095C10.9739 24.8595 11.3131 25 11.6667 25H14.3333C14.6869 25 15.0261 24.8595 15.2761 24.6095C15.5261 24.3595 15.6667 24.0203 15.6667 23.6667V22.6573L17.9427 21.7133L18.6573 22.428C18.9073 22.678 19.2464 22.8184 19.6 22.8184C19.9536 22.8184 20.2927 22.678 20.5427 22.428L22.428 20.5427C22.678 20.2927 22.8184 19.9536 22.8184 19.6C22.8184 19.2464 22.678 18.9073 22.428 18.6573L21.7147 17.9427L22.6573 15.6667H23.6667C24.0203 15.6667 24.3595 15.5261 24.6095 15.2761C24.8595 15.0261 25 14.6869 25 14.3333Z" stroke="var(--mat-sys-on-secondary, white)" stroke-width="2" stroke-linecap="round" stroke-linejoin="round"/>
<path d="M13 19C16.3138 19 19 16.3138 19 13C19 9.6862 16.3138 7 13 7C9.6862 7 7 9.6862 7 13C7 16.3138 9.6862 19 13 19Z" stroke="var(--mat-sys-on-secondary, white)" stroke-width="2" stroke-linecap="round" stroke-linejoin="round"/>
</svg>
