<svg width="256" height="256" viewBox="0 0 256 256" fill="none" xmlns="http://www.w3.org/2000/svg">
<g clip-path="url(#clip0_620_15081)">
<path d="M136.626 3.05176e-05C70.4197 3.05176e-05 16.748 53.6718 16.748 119.873C16.748 186.08 70.4197 239.752 136.626 239.752C202.828 239.752 256.499 186.08 256.499 119.873C256.499 53.6718 202.828 3.05176e-05 136.626 3.05176e-05Z" fill="var(--mat-sys-tertiary, #4B5C92)"/>
<path d="M38.817 130.908C38.817 173.462 60.9852 210.836 94.4086 232.105C49.0294 215.029 16.748 171.222 16.748 119.873C16.748 53.6718 70.4197 3.05176e-05 136.626 3.05176e-05C160.279 3.05176e-05 182.331 6.85244 200.908 18.6814C187.777 13.738 173.553 11.0345 158.695 11.0345C92.4886 11.0345 38.817 64.7062 38.817 130.908Z" fill="#4B5C92"/>
<path d="M136.628 21.12C82.0842 21.12 37.8691 65.3352 37.8691 119.873C37.8691 174.417 82.0842 218.632 136.628 218.632C191.165 218.632 235.381 174.417 235.381 119.873C235.381 65.3352 191.165 21.12 136.628 21.12Z" fill="var(--mat-sys-tertiary-container, #DBE1FF)"/>
<path d="M65.4553 133.666C65.4553 166.814 81.7808 196.143 106.835 214.058C66.8512 201.423 37.8691 164.033 37.8691 119.873C37.8691 65.3352 82.0842 21.12 136.628 21.12C158.023 21.12 177.825 27.9228 193.99 39.4869C130.4 19.3617 65.4553 66.9672 65.4553 133.666Z" fill="var(--mat-sys-tertiary-container, #DBE1FF)"/>
<path d="M185.15 124.287H149.024C147.853 124.287 146.731 123.822 145.903 122.994C145.075 122.166 144.61 121.044 144.61 119.873C144.61 118.703 145.075 117.58 145.903 116.752C146.731 115.924 147.853 115.459 149.024 115.459H185.15C186.321 115.459 187.443 115.924 188.271 116.752C189.099 117.58 189.564 118.703 189.564 119.873C189.564 121.044 189.099 122.166 188.271 122.994C187.443 123.822 186.321 124.287 185.15 124.287ZM136.627 111.89C135.456 111.89 134.333 111.425 133.506 110.597C132.678 109.769 132.213 108.647 132.213 107.476V39.8014C132.213 38.6308 132.678 37.5082 133.506 36.6804C134.333 35.8527 135.456 35.3876 136.627 35.3876C137.797 35.3876 138.92 35.8527 139.748 36.6804C140.575 37.5082 141.04 38.6308 141.04 39.8014V107.476C141.04 108.647 140.575 109.769 139.748 110.597C138.92 111.425 137.797 111.89 136.627 111.89Z" fill="#00174B"/>
<path d="M136.627 107.476C143.474 107.476 149.025 113.026 149.025 119.873C149.025 126.726 143.474 132.276 136.627 132.276C129.775 132.276 124.225 126.726 124.225 119.873C124.225 113.026 129.775 107.476 136.627 107.476Z" fill="var(--mat-sys-tertiary, #4B5C92)"/>
<path d="M136.625 206.203C139.062 206.203 141.039 204.226 141.039 201.789C141.039 199.351 139.062 197.375 136.625 197.375C134.187 197.375 132.211 199.351 132.211 201.789C132.211 204.226 134.187 206.203 136.625 206.203Z" fill="var(--mat-sys-on-tertiary-container, #00174B)"/>
<path d="M177.58 195.228C180.017 195.228 181.994 193.252 181.994 190.814C181.994 188.377 180.017 186.401 177.58 186.401C175.142 186.401 173.166 188.377 173.166 190.814C173.166 193.252 175.142 195.228 177.58 195.228Z" fill="var(--mat-sys-on-tertiary-container, #00174B)"/>
<path d="M207.56 165.246C209.998 165.246 211.974 163.27 211.974 160.832C211.974 158.394 209.998 156.418 207.56 156.418C205.123 156.418 203.146 158.394 203.146 160.832C203.146 163.27 205.123 165.246 207.56 165.246Z" fill="var(--mat-sys-on-tertiary-container, #00174B)"/>
<path d="M218.535 124.29C220.973 124.29 222.949 122.313 222.949 119.876C222.949 117.438 220.973 115.462 218.535 115.462C216.097 115.462 214.121 117.438 214.121 119.876C214.121 122.313 216.097 124.29 218.535 124.29Z" fill="var(--mat-sys-on-tertiary-container, #00174B)"/>
<path d="M54.7107 124.29C57.1483 124.29 59.1244 122.313 59.1244 119.876C59.1244 117.438 57.1483 115.462 54.7107 115.462C52.273 115.462 50.2969 117.438 50.2969 119.876C50.2969 122.313 52.273 124.29 54.7107 124.29Z" fill="var(--mat-sys-on-tertiary-container, #00174B)"/>
<path d="M207.56 83.333C209.998 83.333 211.974 81.3568 211.974 78.9192C211.974 76.4815 209.998 74.5054 207.56 74.5054C205.123 74.5054 203.146 76.4815 203.146 78.9192C203.146 81.3568 205.123 83.333 207.56 83.333Z" fill="var(--mat-sys-on-tertiary-container, #00174B)"/>
<path d="M65.6853 83.333C68.1229 83.333 70.0991 81.3569 70.0991 78.9192C70.0991 76.4815 68.1229 74.5054 65.6853 74.5054C63.2476 74.5054 61.2715 76.4815 61.2715 78.9192C61.2715 81.3569 63.2476 83.333 65.6853 83.333Z" fill="var(--mat-sys-on-tertiary-container, #00174B)"/>
<path d="M177.58 53.3507C180.017 53.3507 181.994 51.3745 181.994 48.9369C181.994 46.4992 180.017 44.5231 177.58 44.5231C175.142 44.5231 173.166 46.4992 173.166 48.9369C173.166 51.3745 175.142 53.3507 177.58 53.3507Z" fill="var(--mat-sys-on-tertiary-container, #00174B)"/>
<path d="M95.6677 53.3507C98.1054 53.3507 100.081 51.3745 100.081 48.9369C100.081 46.4992 98.1054 44.5231 95.6677 44.5231C93.23 44.5231 91.2539 46.4992 91.2539 48.9369C91.2539 51.3745 93.23 53.3507 95.6677 53.3507Z" fill="var(--mat-sys-on-tertiary-container, #00174B)"/>
<path d="M125.747 239.448C129.995 246.803 124.682 256 116.191 256H11.5514C3.0549 256 -2.25268 246.803 1.99559 239.448L54.3155 148.828C58.5638 141.473 69.1789 141.473 73.4272 148.828L125.747 239.448Z" fill="var(--mat-sys-error-container, #FFDAD6)"/>
<path d="M22.4093 244.414C20.1638 248.303 20.5887 252.712 22.7514 256H11.5514C3.0549 256 -2.25267 246.803 1.99559 239.448L54.3155 148.828C58.5638 141.473 69.1789 141.473 73.4272 148.828L75.5679 152.541L22.4093 244.414Z" fill="var(--mat-sys-error-container, #FFDAD6)"/>
<path d="M63.8708 232.283C66.3085 232.283 68.2846 230.307 68.2846 227.869C68.2846 225.432 66.3085 223.455 63.8708 223.455C61.4332 223.455 59.457 225.432 59.457 227.869C59.457 230.307 61.4332 232.283 63.8708 232.283Z" fill="var(--mat-sys-error, #904A43)"/>
<path d="M63.8708 217.244C62.7002 217.244 61.5775 216.779 60.7498 215.951C59.9221 215.123 59.457 214 59.457 212.83V190.263C59.457 189.092 59.9221 187.969 60.7498 187.142C61.5775 186.314 62.7002 185.849 63.8708 185.849C65.0414 185.849 66.1641 186.314 66.9918 187.142C67.8196 187.969 68.2846 189.092 68.2846 190.263V212.83C68.2846 214 67.8196 215.123 66.9918 215.951C66.1641 216.779 65.0414 217.244 63.8708 217.244Z" fill="var(--mat-sys-error, #904A43)"/>
</g>
<defs>
<clipPath id="clip0_620_15081">
<rect width="256" height="256" fill="white" transform="translate(0.5)"/>
</clipPath>
</defs>
</svg>
