<svg width="20" height="22" viewBox="0 0 20 22" fill="none" xmlns="http://www.w3.org/2000/svg">
<path d="M1 5.44444H19M7.42857 8.77778V17.6667M12.5714 8.77778V17.6667M7.42857 1H12.5714C12.9124 1 13.2395 1.11707 13.4806 1.32543C13.7216 1.53381 13.8571 1.81642 13.8571 2.11111V5.44444H6.14286V2.11111C6.14286 1.81642 6.27832 1.53381 6.51943 1.32543C6.76055 1.11707 7.08757 1 7.42857 1ZM2.28571 5.44444H17.7143V19.8889C17.7143 20.1836 17.5788 20.4662 17.3377 20.6746C17.0966 20.8829 16.7695 21 16.4286 21H3.57143C3.23043 21 2.90341 20.8829 2.66229 20.6746C2.42118 20.4662 2.28571 20.1836 2.28571 19.8889V5.44444Z" stroke="white" stroke-width="2" stroke-linecap="round" stroke-linejoin="round"/>
</svg>
