<svg width="283" height="256" viewBox="0 0 283 256" fill="none" xmlns="http://www.w3.org/2000/svg">
<g clip-path="url(#clip0_765_4892)">
<path d="M278.569 210.629L167.941 15.3681C165.29 10.7011 161.453 6.82068 156.819 4.12133C152.185 1.42197 146.92 0 141.559 0C136.199 0 130.934 1.42197 126.3 4.12133C121.666 6.82068 117.828 10.7011 115.177 15.3681L4.43122 210.629C1.81932 215.256 0.46411 220.489 0.500723 225.804C0.537335 231.12 1.9645 236.333 4.63988 240.923C7.31526 245.514 11.1454 249.322 15.7483 251.967C20.3512 254.613 25.566 256.003 30.8727 256H252.127C257.434 256.003 262.649 254.613 267.252 251.967C271.855 249.322 275.685 245.514 278.36 240.923C281.035 236.333 282.463 231.12 282.499 225.804C282.536 220.489 281.181 215.256 278.569 210.629Z" fill="#904A43"/>
<path d="M141.675 228.524C151.191 228.524 158.905 220.921 158.905 211.543C158.905 202.165 151.191 194.562 141.675 194.562C132.159 194.562 124.445 202.165 124.445 211.543C124.445 220.921 132.159 228.524 141.675 228.524Z" fill="white"/>
<path d="M141.675 176.747C137.106 176.747 132.723 174.916 129.492 171.657C126.261 168.399 124.445 163.979 124.445 159.37V70.5262C124.445 65.9176 126.261 61.4978 129.492 58.2391C132.723 54.9804 137.106 53.1497 141.675 53.1497C146.245 53.1497 150.627 54.9804 153.859 58.2391C157.09 61.4978 158.905 65.9176 158.905 70.5262V159.37C158.905 163.979 157.09 168.399 153.859 171.657C150.627 174.916 146.245 176.747 141.675 176.747Z" fill="white"/>
</g>
<defs>
<clipPath id="clip0_765_4892">
<rect width="282" height="256" fill="white" transform="translate(0.5)"/>
</clipPath>
</defs>
</svg>
